<?xml version="1.0" encoding="UTF-8"?>
<svg id="Layer_2" data-name="Layer 2" xmlns="http://www.w3.org/2000/svg" viewBox="0 0 1000 1000">
  <defs>
    <style>
      .cls-1 {
        fill: #231f20;
      }
    </style>
  </defs>
  <g id="Layer_1-2" data-name="Layer 1">
    <path class="cls-1" d="M500,0C223.86,0,0,223.86,0,500s223.86,500,500,500,500-223.86,500-500S776.14,0,500,0ZM343.34,340.29c0-16.91,14.64-30.63,32.69-30.63h118.23c31.37,0,55.13,1.12,71.3,3.36,16.16,2.24,31.32,6.95,45.48,14.11,15.3,7.71,26.73,18.01,34.29,30.91,7.55,12.9,11.33,27.78,11.33,44.62,0,19.53-5.21,36.92-15.64,52.15-1,1.46-2.2,2.94-3.56,4.44-12.14,13.37-32.25,15.69-50.98,15.81-89.42.58-68.48-61.12-211.91,40.75-16.63,11.81-31.24,12.31-31.24-31.88v-143.65ZM657.28,632.26c0,55.06-40.3,99.7-90.01,99.7h-133.31c-49.71,0-90.01-44.64-90.01-99.7h0c0-43.13,22.99-71.22,58.19-88.14,16.14-7.76,33.9-11.57,51.81-11.57h113.32c49.71,0,90.01,44.64,90.01,99.7h0Z"/>
  </g>
</svg>